<svg xmlns:dc="http://purl.org/dc/elements/1.1/" xmlns:cc="http://creativecommons.org/ns#" xmlns:rdf="http://www.w3.org/1999/02/22-rdf-syntax-ns#" xmlns:svg="http://www.w3.org/2000/svg" xmlns="http://www.w3.org/2000/svg" xmlns:sodipodi="http://sodipodi.sourceforge.net/DTD/sodipodi-0.dtd" xmlns:inkscape="http://www.inkscape.org/namespaces/inkscape" viewBox="0 0 100 125" version="1.1" x="0px" y="0px"><g transform="translate(0,-952.36216)"><path style="color:#000000;clip-rule:nonzero;display:inline;overflow:visible;visibility:visible;opacity:1;isolation:auto;mix-blend-mode:normal;color-interpolation:sRGB;color-interpolation-filters:linearRGB;solid-color:#000000;solid-opacity:1;fill:#000000;fill-opacity:1;fill-rule:nonzero;stroke:none;stroke-width:5;stroke-linecap:round;stroke-linejoin:round;stroke-miterlimit:4;stroke-dasharray:none;stroke-dashoffset:0;stroke-opacity:1;marker:none;color-rendering:auto;image-rendering:auto;shape-rendering:auto;text-rendering:auto;enable-background:accumulate" d="m 39.598892,962.78739 c -0.448,0.011 -0.883,0.049 -1.297,0.118 -3.317,0.5558 -6.322,3.3431 -9.346,4.4223 -3.024,1.079 -8.104,1.1753 -10.66,2.7151 -2.557,1.5398 -3.311,4.9583 -5.251,6.8693 -1.94,1.911 -6.3740005,3.6006 -7.5850005,5.7717 -2.752,11.2341 10.2240005,19.18951 23.6030005,23.50191 -13.354,1.4481 -26.2500005,4.4944 -23.5120005,10.379 1.211,1.1428 5.6430005,2.0314 7.5830005,3.0374 1.94,1.0059 2.694,2.8059 5.251,3.6165 2.556,0.8105 7.636,0.8614 10.661,1.4294 3.024,0.5681 6.03,2.035 9.347,2.3275 0.414,0.036 0.847,0.054 1.295,0.062 3.142,0.042 7.011,-0.5696 10.001,-0.5696 3.415,0 7.981,0.7999 11.298,0.5073 3.316,-0.2924 6.317,-1.7594 9.34,-2.3275 3.025,-0.568 8.106,-0.6188 10.663,-1.4293 2.556,-0.8106 3.312,-2.6107 5.252,-3.6165 1.94,-1.0061 6.372,-1.8946 7.584,-3.0375 5.43,-5.7042 -9.002,-8.8571 -23.552,-10.3694 14.527,-4.4733 28.867,-12.72511 23.463,-23.51151 -1.212,-2.171 -5.645,-3.8607 -7.586,-5.7717 -1.94,-1.9109 -2.694,-5.3294 -5.25,-6.8692 -2.557,-1.5398 -7.639,-1.6361 -10.663,-2.7152 -3.024,-1.0791 -6.026,-3.8665 -9.342,-4.4222 -3.317,-0.5558 -7.883,0.9635 -11.298,0.9635 -2.989,0 -6.857,-1.163 -9.999,-1.0816 z m 10.395,30.234 a 13.164528,13.164528 0 0 1 13.164,13.16581 13.164528,13.164528 0 0 1 -13.164,13.1644 13.164528,13.164528 0 0 1 -13.165,-13.1644 13.164528,13.164528 0 0 1 13.165,-13.16581 z m 7.008,4.5385 a 11.122627,11.122627 0 0 1 2.48,6.99381 11.122627,11.122627 0 0 1 -11.122,11.1224 11.122627,11.122627 0 0 1 -7.011,-2.4982 11.122627,11.122627 0 0 0 8.645,4.1318 11.122627,11.122627 0 0 0 11.122,-11.1225 11.122627,11.122627 0 0 0 -4.114,-8.62731 z m 37.598,20.99571 c -1.144,0.8238 -2.367,1.0966 -3.668,1.5219 -1.539,0.5029 -3.137,1.0163 -3.762,1.34 -0.624,0.3236 -1.143,0.8443 -1.963,1.5842 -0.821,0.7398 -1.97,1.6454 -3.607,2.1648 -1.639,0.5193 -3.59,0.706 -5.582,0.8933 -1.993,0.1873 -4.005,0.3489 -5.324,0.5967 -2.637,0.4955 -5.732,2.0191 -9.537,2.3546 -3.804,0.3356 -8.382,-0.4993 -11.478,-0.4993 -2.711,0 -6.597,0.616 -10.028,0.5695 a 2.0421773,2.0421773 0 0 1 -0.107,-0.01 c -0.442,-0.01 -0.882,-0.025 -1.322,-0.064 -3.805,-0.3355 -6.904,-1.8591 -9.543,-2.3546 -1.319,-0.2478 -3.326,-0.4093 -5.319,-0.5966 -1.992,-0.1873 -3.944,-0.3742 -5.581,-0.8934 -1.639,-0.5195 -2.787,-1.425 -3.607,-2.1648 -0.821,-0.74 -1.343,-1.2605 -1.967,-1.5841 -0.624,-0.3238 -2.2220005,-0.8372 -3.7610005,-1.3401 -1.203,-0.3931 -2.338,-0.656 -3.406,-1.3432 -0.09,1.0256 0,2.1254 0.283,3.3102 1.211,2.1711 5.6430005,3.8608 7.5840005,5.7718 1.94,1.911 2.692,5.3295 5.248,6.8693 2.557,1.5398 7.637,1.6362 10.662,2.7152 3.024,1.0793 6.031,3.8664 9.348,4.4222 0.414,0.069 0.847,0.1065 1.294,0.118 3.143,0.082 7.013,-1.0816 10.002,-1.0816 3.415,0 7.979,1.5193 11.296,0.9636 3.317,-0.5558 6.317,-3.3429 9.341,-4.4222 3.025,-1.0789 8.108,-1.1754 10.664,-2.7152 2.557,-1.5398 3.312,-4.9583 5.252,-6.8693 1.941,-1.911 6.373,-3.6007 7.584,-5.7718 0.627,-1.2531 0.949,-2.4121 1.013,-3.4873 l 0,0 z"/></g><text x="0" y="115" fill="#000000" font-size="5px" font-weight="bold" font-family="'Helvetica Neue', Helvetica, Arial-Unicode, Arial, Sans-serif">Created by Andrew Doane</text><text x="0" y="120" fill="#000000" font-size="5px" font-weight="bold" font-family="'Helvetica Neue', Helvetica, Arial-Unicode, Arial, Sans-serif">from the Noun Project</text></svg>